<?xml version="1.0" encoding="utf-8"?>
<!-- Generator: Adobe Illustrator 24.0.2, SVG Export Plug-In . SVG Version: 6.00 Build 0)  -->
<svg version="1.1" id="Layer_1" xmlns="http://www.w3.org/2000/svg" xmlns:xlink="http://www.w3.org/1999/xlink" x="0px" y="0px"
	 viewBox="0 0 35.18 28.35" style="enable-background:new 0 0 35.18 28.35;" xml:space="preserve">

<polygon class="st0" points="11.95,28.3 11.95,0 5.87,0 0,7.47 4.44,7.47 4.44,28.3 "/>
<path class="st0" d="M24.99,3.18h-4.63c-0.41,0-0.61,0.51-0.31,0.79L22.25,6c2.13,1.98,0.73,5.53-2.18,5.53h-4.35l-2.51-3.2
	l5.62-0.01c0.43,0,0.64-0.53,0.33-0.83l-2.09-1.96C14.96,3.55,16.37,0,19.27,0l3.23,0L24.99,3.18z"/>
<polygon class="st0" points="11.95,28.3 11.95,0 5.87,0 0,7.47 4.44,7.47 4.44,28.3 "/>
<path class="st0" d="M24.99,3.18h-4.63c-0.41,0-0.61,0.51-0.31,0.79L22.25,6c2.13,1.98,0.73,5.53-2.18,5.53h-4.35l-2.51-3.2
	l5.62-0.01c0.43,0,0.64-0.53,0.33-0.83l-2.09-1.96C14.96,3.55,16.37,0,19.27,0l3.23,0L24.99,3.18z"/>
<path class="st0" d="M32.89,2.92h-1.29v8.62h-3V2.92h-1.29L25.03,0h10.15L32.89,2.92z"/>
</svg>
