<?xml version="1.0" encoding="utf-8"?>
<!-- Generator: Adobe Illustrator 23.1.0, SVG Export Plug-In . SVG Version: 6.00 Build 0)  -->
<svg version="1.1" id="Layer_1" xmlns="http://www.w3.org/2000/svg" xmlns:xlink="http://www.w3.org/1999/xlink" x="0px" y="0px"
	 viewBox="0 0 108.5 14" style="enable-background:new 0 0 108.5 14;" xml:space="preserve">

<path class="st0" d="M60.7,14.1l-12.4,0v-14h12.4L57.6,4h-5.4v1.5h4.2v3.1l-4.2,0v1.6l5.4,0.1L60.7,14.1z"/>
<polygon class="st0" points="29.6,14.1 33.3,9.5 33.3,0 29.6,0 "/>
<path class="st0" d="M28,14.1l-4.6-4.5c2.8-0.4,4.5-2.9,4.5-4.8c0-2.7-1.6-4.8-5.7-4.8h-8.6l3,3.8h5.6c1.7,0,1.5,2.4,0,2.4h-5.9
	l-2.7,3.4v4.4h4V9.7h0.5l4.6,4.4H28z"/>
<path class="st0" d="M45.4,6.4c1-0.5,1.4-1.5,1.4-2.6c0-3.2-3-3.8-5.8-3.8h-6.3l3,3.7c4.1,0,4.4,0,4.4,0c0.6,0,0.8,0.4,0.8,0.8
	c0,0.5-0.3,0.9-0.8,0.9h-3.4h-1v2.7h1h2.8c1.1,0,1.6,0.5,1.6,1c0,0.5-0.6,1.1-1.6,1.1c-0.4,0-2.8,0-3.9,0l-3,3.8h6.2
	c3.1,0,6.2-1.2,6.2-4.6C47,8.3,46.5,7.1,45.4,6.4z"/>
<path class="st0" d="M9.6,3.6H8v10.6H4.4V3.6H2.8L0,0h12.4L9.6,3.6z"/>
<g>
	<polygon class="st0" points="89,14.2 92.6,9.5 92.6,0 89,0 	"/>
	<path class="st0" d="M108.5,14h-3.7l-6.4-7.8V9l-4,5.1l0-14.1h3.7l6.4,7.8V5.1l4-5.1V14z"/>
	<path class="st0" d="M74.9,7l3.3-4.2h1.6L83.2,7V0h4v14h-3.2l-4.9-6.2L74.2,14H71V0h4V7z"/>
</g>
</svg>
