<?xml version="1.0" encoding="utf-8"?>
<!-- Generator: Adobe Illustrator 23.1.0, SVG Export Plug-In . SVG Version: 6.00 Build 0)  -->
<svg version="1.1" id="Layer_1" xmlns="http://www.w3.org/2000/svg" xmlns:xlink="http://www.w3.org/1999/xlink" x="0px" y="0px"
	 viewBox="0 0 106.6 14.2" style="enable-background:new 0 0 106.6 14.2;" xml:space="preserve">

<path class="st0" d="M11.9,7.6l-3.2,6.3v0H7.1L3.8,7.6v6.3H0V0.3h4.4l3.5,7.5l3.5-7.5h4.4v13.6h-3.8V7.6z"/>
<path class="st0" d="M46.3,13.9h-3.6l-6.2-7.6V9l-3.8,4.9V0.3h3.6l6.2,7.5V5.2l3.8-4.9V13.9z"/>
<path class="st0" d="M17.2,7.1c0-4.4,2.8-7.1,7-7.1c4.2,0,7.1,2.8,7.1,7c0,4.4-2.8,7.1-7,7.1C20,14.2,17.2,11.3,17.2,7.1z M24.2,3.6
	c-1.9,0-3.1,1.2-3.1,3.3c0,2.2,1.2,3.6,3.2,3.6c2,0,3.2-1.2,3.2-3.3C27.4,5.1,26.1,3.6,24.2,3.6z"/>
<path class="st0" d="M106.6,4h-5.5c-0.5,0-0.7,0.6-0.4,0.9l2.6,2.4c2.5,2.3,0.9,6.5-2.6,6.5h-5.1l-3-3.8l6.6,0c0.5,0,0.8-0.6,0.4-1
	l-2.5-2.3c-2.5-2.3-0.8-6.5,2.6-6.5h3.8L106.6,4z"/>
<path class="st0" d="M66.5,13.9V8.8h-4.4v5.1h-3.9V5.1l3.9-4.9v5.1h4.4V0.2h3.9V9L66.5,13.9z"/>
<path class="st0" d="M81.3,13.9H72V0.2h3.5v10.3H84L81.3,13.9z"/>
<path class="st0" d="M56.6,3.7h-1.5v10.2h-3.5V3.7h-1.5l-2.7-3.4h12L56.6,3.7z"/>
<path class="st0" d="M86,8.7l-6.7-8.5h4.4l4.2,5.3l4.2-5.3h4.4l-6.7,8.5v5.1H86L86,8.7L86,8.7z"/>
</svg>
