<?xml version="1.0" encoding="utf-8"?>
<!-- Generator: Adobe Illustrator 24.1.1, SVG Export Plug-In . SVG Version: 6.00 Build 0)  -->
<svg version="1.1" id="Layer_1" xmlns="http://www.w3.org/2000/svg" xmlns:xlink="http://www.w3.org/1999/xlink" x="0px" y="0px"
	 viewBox="0 0 28.35 243.04" style="enable-background:new 0 0 28.35 243.04;" xml:space="preserve">
<path class="st0" d="M0.02,225.79l0,17.25l7.73-6.08v-11.2c0-3.33,4.79-3.03,4.79,0.04v11.83l6.88,5.41h8.92v-8.02h-8.92l0-10.37
	c0-6.47-5.63-10.36-9.81-10.36C4.16,214.28,0.02,217.55,0.02,225.79z"/>
<path class="st0" d="M28.35,71.77l-9.09,9.39c-0.74-5.75-5.8-9.2-9.73-9.2c-5.49,0-9.57,3.34-9.52,11.62v17.19l7.65-6.01l-0.1-11.26
	c0-3.34,4.8-3.04,4.8,0.04l0.11,11.89l6.92,5.43h8.96V92.8h-8.96l0-1.1l8.96-9.26V71.77z"/>
<polygon class="st0" points="0,0 0,9.8 8.51,17.6 0,17.6 0,24.81 28.35,24.81 28.35,17.6 19.15,17.6 17.17,15.78 28.35,8.77 
	28.35,0.26 11.67,10.69 "/>
<polygon class="st0" points="0,155.61 28.35,171.11 28.35,162.88 15.03,155.61 28.35,148.31 28.35,140.08 "/>
</svg>
