<?xml version="1.0" encoding="utf-8"?>
<!-- Generator: Adobe Illustrator 23.1.0, SVG Export Plug-In . SVG Version: 6.00 Build 0)  -->
<svg version="1.1" id="Layer_1" xmlns="http://www.w3.org/2000/svg" xmlns:xlink="http://www.w3.org/1999/xlink"
	 viewBox="0 0 95 14" style="enable-background:new 0 0 95 14;" xml:space="preserve">

<path class="st0" d="M30.1,14H17.7V0h12.4l-3.1,3.9h-5.4v1.5h4.2v3.1h-4.2v1.6l5.4,0.1L30.1,14z"/>
<path class="st0" d="M44.1,14H31.7V0h12.4L41,3.9h-5.4v1.5h4.2v3.1h-4.2v1.6l5.4,0.1L44.1,14z"/>
<polygon class="st0" points="58,-0.1 53.1,-0.1 49.2,4.2 49.2,-0.1 45.6,-0.1 45.6,14.1 49.2,14.1 49.2,9.5 50.1,8.5 53.6,14.1 
	57.9,14.1 52.7,5.8 "/>
<path class="st0" d="M4,6.4l3.3-4.2h1.6l3.3,4.2V0h4v14H13L8.1,7.8L3.2,14H0V0h4V6.4z"/>
<path class="st0" d="M95,3.9h-5.6c-0.5,0-0.7,0.6-0.4,1l2.7,2.5C94.3,9.7,92.6,14,89,14h-5.3l-3.1-3.9l6.8,0c0.5,0,0.8-0.6,0.4-1
	l-2.5-2.4C82.8,4.3,84.5,0,88.1,0H92L95,3.9z"/>
<path class="st0" d="M68.9,14.1h-9.6V-0.1h3.6v10.6h8.8L68.9,14.1z"/>
<path class="st0" d="M73.7,8.7L66.9,0h4.5l4.3,5.5L80,0h4.5l-6.9,8.7V14h-3.9L73.7,8.7L73.7,8.7z"/>
</svg>
