<svg xmlns="http://www.w3.org/2000/svg" viewBox="0 0 114.35 13.56"><defs><style>.cls-1{fill:#c0ecff;}</style></defs><g id="Layer_2" data-name="Layer 2"><g id="Layer_1-2" data-name="Layer 1"><path class="cls-1" d="M13.29,3.85H8.07a.51.51,0,0,0-.35.88L10.2,7a3.6,3.6,0,0,1-2.46,6.24H2.84L0,9.67H6.34a.54.54,0,0,0,.37-.93L4.36,6.51A3.61,3.61,0,0,1,6.83.26h3.65Z"/><polygon class="cls-1" points="46.85 13.26 43.44 13.26 37.49 6.02 37.49 8.62 33.81 13.31 33.81 0.24 37.22 0.24 43.17 7.45 43.17 4.92 46.85 0.24 46.85 13.26"/><polygon class="cls-1" points="103.01 6.24 106.09 2.31 107.58 2.31 110.67 6.24 110.67 0.26 114.35 0.26 114.35 13.26 111.37 13.26 106.84 7.48 102.31 13.26 99.33 13.26 99.33 0.26 103.01 0.26 103.01 6.24"/><path class="cls-1" d="M67.17,6.84C67.17,2.67,69.83,0,73.85,0a6.39,6.39,0,0,1,6.78,6.72c0,4.18-2.68,6.84-6.72,6.84a6.36,6.36,0,0,1-6.74-6.72m6.68-3.35a2.82,2.82,0,0,0-3,3.12c0,2.11,1.14,3.49,3,3.49a2.86,2.86,0,0,0,3-3.13c0-2.13-1.18-3.48-3.09-3.48"/></g></g></svg>