<?xml version="1.0" encoding="utf-8"?>
<!-- Generator: Adobe Illustrator 23.1.0, SVG Export Plug-In . SVG Version: 6.00 Build 0)  -->
<svg version="1.1" id="Layer_1" xmlns="http://www.w3.org/2000/svg" xmlns:xlink="http://www.w3.org/1999/xlink" x="0px" y="0px"
	 viewBox="0 0 14.16 121.32" style="enable-background:new 0 0 14.16 121.32;" xml:space="preserve">
<g>
	<polygon class="st0" points="14.16,79.76 9.48,76.08 0.01,76.08 0.01,79.76 	"/>
	<polygon class="st0" points="10.54,8.55 8.66,8.55 8.66,4.35 5.52,4.35 5.52,8.55 3.65,8.55 3.65,2.87 0,0 0.01,12.56 14.16,12.56 
		14.17,0 10.54,2.85 	"/>
	<path class="st0" d="M4.85,107.01c-2.72,0-4.78,1.63-4.78,5.73v8.58l3.85-3.02v-5.57c0-1.66,2.39-1.51,2.39,0.02v5.88l3.42,2.69
		h4.44v-3.99H9.74v-0.55l4.42-4.57v-5.28l-4.47,4.62C9.31,108.72,6.8,107.01,4.85,107.01z"/>
	<path class="st0" d="M0.01,41.79l0,7.08h7.01v-4H3.75c0-0.93,0-1.91,0-2.15c0-2.38,1.11-3.76,3.02-3.76c2.13,0,3.61,1.38,3.61,3.78
		l-0.03,3.14l3.81,2.98v-7.04c0-4.34-3.21-7.12-7.5-7.12C2.69,34.71,0.01,37.55,0.01,41.79z"/>
</g>
</svg>
