<?xml version="1.0" encoding="utf-8"?>
<!-- Generator: Adobe Illustrator 24.1.1, SVG Export Plug-In . SVG Version: 6.00 Build 0)  -->
<svg version="1.1" id="Layer_1" xmlns="http://www.w3.org/2000/svg" xmlns:xlink="http://www.w3.org/1999/xlink" x="0px" y="0px"
	 viewBox="0 0 28.35 246.48" style="enable-background:new 0 0 28.35 246.48;" xml:space="preserve">

<path class="st0" d="M7.79,217.59v11.35c0,1.01,1.24,1.5,1.93,0.76l5-5.38c4.85-5.21,13.57-1.78,13.57,5.33v10.66l-7.85,6.17
	l-0.02-13.79c0-1.06-1.3-1.58-2.03-0.8l-4.81,5.12C8.71,242.2,0,238.75,0,231.63l0-7.91L7.79,217.59z"/>
<path class="st0" d="M28.25,144.95v7.39l-15.72,12.91h5.65l10.16,7.99l-28.35,0v-7.39l15.63-12.91h-5.47L0,144.95H28.25z"/>
<path class="st0" d="M13.02,24.68l-8.56-6.72v-3.23L13.02,8H0V0h28.3v6.48l-12.59,9.86L28.3,26.2v6.48H0v-8H13.02z"/>
<path class="st0" d="M14.27,104C5.56,104,0,98.44,0,90.05c0-8.47,5.64-14.15,14.03-14.15c8.7,0,14.27,5.6,14.27,14.03
	C28.3,98.4,22.65,104,14.27,104z M7.27,90.05c0,3.82,2.38,6.24,6.52,6.24c4.41,0,7.27-2.38,7.27-6.32c0-3.9-2.42-6.36-6.52-6.36
	C10.09,83.62,7.27,86.08,7.27,90.05z"/>
</svg>
