<svg xmlns="http://www.w3.org/2000/svg" viewBox="0 0 112.73 13.13"><defs><style>.cls-1{fill:#23cccc;}</style></defs><g id="Layer_2" data-name="Layer 2"><g id="Layer_1-2" data-name="Layer 1"><path class="cls-1" d="M42.73,7.42a2.24,2.24,0,0,1-.19.93,2.43,2.43,0,0,1-.52.77,2.24,2.24,0,0,1-.76.5,2.36,2.36,0,0,1-1.86,0,2.24,2.24,0,0,1-.76-.5,2.48,2.48,0,0,1-.51-.76A2.42,2.42,0,0,1,38,7.42V.09L34.63,4.31V7.42a5.74,5.74,0,0,0,1.66,4,6,6,0,0,0,1.82,1.22,5.75,5.75,0,0,0,4.46,0,5.71,5.71,0,0,0,3-3,5.62,5.62,0,0,0,.45-2.23V.09H42.73Z"/><polygon class="cls-1" points="110.13 3.4 112.73 0.09 101.07 0.09 101.07 13.13 104.39 13.13 104.39 9.48 106.85 9.48 109.46 6.16 104.39 6.16 104.39 3.4 110.13 3.4"/><path class="cls-1" d="M13.29,3.62H8.07a.51.51,0,0,0-.35.89l2.48,2.3a3.61,3.61,0,0,1-2.46,6.25H2.84L0,9.45H6.34a.54.54,0,0,0,.37-.94L4.36,6.29A3.61,3.61,0,0,1,6.83,0h3.65Z"/><path class="cls-1" d="M80.28,13.08,76,8.93A4.86,4.86,0,0,0,80.2,4.44C80.2,1.91,78.69,0,74.88,0h-8l2.81,3.58H74.9a1.11,1.11,0,1,1,0,2.21H69.41L66.91,9V13.1h3.71V9h.5l4.25,4.1Z"/></g></g></svg>