<?xml version="1.0" encoding="utf-8"?>
<!-- Generator: Adobe Illustrator 24.0.2, SVG Export Plug-In . SVG Version: 6.00 Build 0)  -->
<svg version="1.1" id="Layer_1" xmlns="http://www.w3.org/2000/svg" xmlns:xlink="http://www.w3.org/1999/xlink" x="0px" y="0px"
	 viewBox="0 0 121.94 28.35" style="enable-background:new 0 0 121.94 28.35;" xml:space="preserve">

<path class="st0" d="M121.94,28.35l-25.11,0V0h25.11l-6.23,7.93h-10.87v3.11h8.42v6.27l-8.42,0v3.15l11,0.12L121.94,28.35z"/>
<polygon class="st0" points="59.44,28.34 66.81,18.97 66.81,0 59.44,0 "/>
<path class="st0" d="M56.14,28.32l-9.28-8.99c5.7-0.76,9.13-5.82,9.13-9.72C55.98,4.14,52.7,0,44.46,0H27.21l6.08,7.74h11.21
	c3.33,0,3.03,4.8-0.04,4.8H32.62l-5.41,6.89v8.92h8.03v-8.92h1.1l9.18,8.89H56.14z"/>
<path class="st0" d="M91.06,12.85c1.92-0.98,2.81-3.02,2.81-5.15c0-6.47-6.08-7.7-11.7-7.7H69.41l5.94,7.51c8.2,0,8.9-0.02,8.9-0.02
	c1.11,0,1.62,0.85,1.62,1.7c0,0.94-0.59,1.87-1.7,1.87h-6.8h-2.02v5.41h2.02h5.69c2.21,0,3.28,1.02,3.28,2.08
	c0,1.07-1.15,2.17-3.23,2.17c-0.81,0-5.56,0-7.75,0l-5.94,7.62h12.5c6.17,0,12.42-2.34,12.42-9.32
	C94.34,16.6,93.32,14.21,91.06,12.85z"/>
<path class="st0" d="M19.3,7.16h-3.16v21.18H8.79V7.16H5.63L0,0h24.93L19.3,7.16z"/>
</svg>
