<?xml version="1.0" encoding="utf-8"?>
<!-- Generator: Adobe Illustrator 24.0.2, SVG Export Plug-In . SVG Version: 6.00 Build 0)  -->
<svg version="1.1" id="Layer_1" xmlns="http://www.w3.org/2000/svg" xmlns:xlink="http://www.w3.org/1999/xlink" x="0px" y="0px"
	 viewBox="0 0 53.49 28.35" style="enable-background:new 0 0 53.49 28.35;" xml:space="preserve">
<path class="st0" d="M7.55,18.22l8.64,0c7.72,0,10.79-3.88,10.79-9.01c0-3.89-3.62-9.11-9.57-9.2V0L0.01,0.02l5.07,6.45h11.1
	c2.88,0,3.16,4.5,0.04,4.5H5.07L0,17.44v0.77v0.01v2.87v2.01v5.25h21.28l5.7-7.26H7.55V18.22z"/>
<path class="st0" d="M47.73,0l-5.76,0v5.71h3.25V3.05c0.76,0,1.56,0,1.75,0c1.94,0,3.06,0.9,3.06,2.46c0,1.73-1.12,2.94-3.08,2.94
	l-2.55-0.02l-2.43,3.1h5.72c3.53,0,5.79-2.61,5.79-6.1C53.49,2.18,51.18,0,47.73,0z"/>
<path class="st0" d="M39.91,11.52H36.9l-5.26-6.41v2.3l-3.26,4.14l0-11.56h3.01l5.26,6.37V4.15L39.91,0V11.52z"/>
</svg>
