<?xml version="1.0" encoding="utf-8"?>
<!-- Generator: Adobe Illustrator 23.1.0, SVG Export Plug-In . SVG Version: 6.00 Build 0)  -->
<svg version="1.1" id="Layer_1" xmlns="http://www.w3.org/2000/svg" xmlns:xlink="http://www.w3.org/1999/xlink" x="0px" y="0px"
	 viewBox="0 0 58.56 42.74" style="enable-background:new 0 0 58.56 42.74;" xml:space="preserve">
<path class="st0" d="M20.75,20.86H9.05v-4.4h15.83l6.1-7.77H0v2.11v17.83h6.1h13.34c3.46,0,3.8,5.41,0.05,5.41H6.86L0,42.76h19.47
	c9.29,0,12.98-4.67,12.98-10.83C32.44,27.21,28.02,20.86,20.75,20.86z"/>
<path class="st0" d="M53.74,17.07v-6.39h-5.48v6.39h-4.8V6.11L48.26,0v6.4h5.48V0.01h4.82v10.92L53.74,17.07z"/>
<path class="st0" d="M40.91,4.3H39v12.8h-4.44V4.3h-1.91l-3.4-4.33h15.06L40.91,4.3z"/>
</svg>
