<?xml version="1.0" encoding="UTF-8"?>
<svg xmlns="http://www.w3.org/2000/svg" xmlns:xlink="http://www.w3.org/1999/xlink" version="1.1">

    <symbol id="new-lounge">
        <path class="st0" d="M57.41,28.35l-25.11,0V0h25.11l-6.23,7.93H40.31v3.11h8.42v6.27l-8.42,0v3.15l11,0.12L57.41,28.35z" />
        <path class="st0" d="M28.29,28.35h-7.31L7.99,12.53v5.65L0,28.35L0,0h7.39L20.3,15.63v-5.47L28.29,0L28.29,28.35z" />
        <path class="st0" d="M68.32,13.04l6.73-8.57h3.24l6.74,8.57V0h8.01v28.35h-6.49l-9.88-12.61L66.8,28.35h-6.49V0h8.01V13.04z" />
        <path class="st0" d="M282.32,28.35l-25.11,0V0h25.11l-6.23,7.93h-10.87v3.11h8.42v6.27l-8.42,0v3.15l11,0.12L282.32,28.35z" />
        <path class="st0" d="M223.2,28.35h-7.31L202.9,12.53v5.65l-7.99,10.16l0-28.35h7.39l12.91,15.63v-5.47L223.21,0L223.2,28.35z" />
        <path class="st0" d="M136.42,14.29c0-8.72,5.57-14.29,13.97-14.29c8.48,0,14.17,5.65,14.17,14.05c0,8.72-5.61,14.29-14.05,14.29    C142.03,28.35,136.42,22.69,136.42,14.29z M150.39,7.29c-3.82,0-6.25,2.39-6.25,6.53c0,4.42,2.39,7.29,6.33,7.29    c3.9,0,6.37-2.43,6.37-6.53C156.84,10.11,154.37,7.29,150.39,7.29z" />
        <path class="st0" d="M254.63,12.09h-9.56l-4.51,5.74h5.99c-0.96,2.17-3.13,3.21-5.38,3.21c-3.49,0-7.27-2.49-7.27-7.15    c0-4.05,2.61-6.42,6.7-6.42c1.52,0,3.2,0.4,4.46,1.32h8.47C251.9,3.09,247.37,0,240.78,0c-8.35,0-14.86,4.82-14.86,13.89    c0,8.31,6.06,14.46,14.62,14.46c8.35,0,14.29-5.38,14.29-13.61C254.83,13.89,254.75,13.01,254.63,12.09z" />
        <path class="st0" d="M129.33,28.35h-19.24V0h7.2v21.26h17.61L129.33,28.35z" />
        <path class="st0" d="M185.18,15.93c0,0.74-0.13,1.4-0.41,2.02c-0.29,0.65-0.65,1.2-1.13,1.67c-0.47,0.47-1.01,0.83-1.65,1.1    c-1.29,0.55-2.81,0.53-4.05,0c-0.64-0.27-1.18-0.63-1.65-1.1c-0.47-0.47-0.83-1.01-1.1-1.65c-0.27-0.63-0.4-1.3-0.4-2.04V0    l-7.21,9.18v6.75c0,1.7,0.33,3.33,0.98,4.85c0.64,1.5,1.53,2.83,2.65,3.94c1.12,1.12,2.44,2.01,3.94,2.64    c1.51,0.65,3.15,0.98,4.85,0.98c1.7,0,3.33-0.33,4.85-0.98c1.5-0.64,2.83-1.53,3.94-2.65c1.11-1.11,2-2.44,2.65-3.94l0,0    c0.65-1.52,0.98-3.15,0.98-4.85V0h-7.21V15.93z" />
    </symbol>
    <symbol id="post-instagram">
   <g id="Layer_2" data-name="Layer 2">
      <g id="Layer_1-2" data-name="Layer 1">
         <path d="M65.12,14.33C65.12,5.61,70.69,0,79.09,0S93.26,5.69,93.26,14.09c0,8.72-5.61,14.3-14.05,14.3S65.12,22.73,65.12,14.33m14-7c-3.82,0-6.25,2.39-6.25,6.54,0,4.41,2.39,7.28,6.33,7.28s6.37-2.43,6.37-6.53c0-4.46-2.47-7.29-6.45-7.29" />
         <path d="M52.22,0H35L41,7.78H52.25c3.33,0,3,4.8,0,4.8H40.37L35,19.46v8.93h8V19.46H53.36A10.44,10.44,0,0,0,63.73,9.64c0-5.46-3.27-9.6-11.51-9.6" />
         <path d="M122.88,7.84H111.51a1.12,1.12,0,0,0-.76,1.94l5.4,5a7.85,7.85,0,0,1-5.35,13.6H100.12L94,20.52h13.81a1.19,1.19,0,0,0,.81-2l-5.14-4.82A7.88,7.88,0,0,1,108.83,0h7.92Z" />
         <polygon points="141.12 7.2 137.96 7.2 137.96 28.39 130.6 28.39 130.6 7.2 127.44 7.2 121.81 0.04 146.75 0.04 141.12 7.2" />
         <path d="M28.34,8.53a10.45,10.45,0,0,0-.67-3.48A7,7,0,0,0,26,2.45a7.07,7.07,0,0,0-2.6-1.7A10.76,10.76,0,0,0,19.9.08C18.43,0,17.94,0,14.21,0S10,0,8.53.08A10.88,10.88,0,0,0,5,.75a7.12,7.12,0,0,0-2.59,1.7,7.07,7.07,0,0,0-1.7,2.6A10.76,10.76,0,0,0,.08,8.53C0,10,0,10.49,0,14.21s0,4.22.08,5.69a10.76,10.76,0,0,0,.67,3.48A7.07,7.07,0,0,0,2.45,26,7.22,7.22,0,0,0,5,27.67a10.37,10.37,0,0,0,3.49.67c1.47.07,2,.09,5.68.09s4.22,0,5.69-.09a10.31,10.31,0,0,0,3.48-.67A7.18,7.18,0,0,0,26,26a7,7,0,0,0,1.69-2.6,10.5,10.5,0,0,0,.67-3.48c.07-1.48.09-2,.09-5.69S28.41,10,28.34,8.53ZM25,14.21c0,3.65,0,4.09-.07,5.53a7.35,7.35,0,0,1-.44,2.4,4.09,4.09,0,0,1-2.33,2.33,7.35,7.35,0,0,1-2.4.44c-1.43.06-1.86.07-5.53.07s-4.09,0-5.52-.07a7,7,0,0,1-2.4-.45,3.69,3.69,0,0,1-1.41-.91A3.92,3.92,0,0,1,4,22.14a7.35,7.35,0,0,1-.44-2.4c-.06-1.44-.08-1.88-.08-5.53s0-4.08.08-5.52A7.35,7.35,0,0,1,4,6.29a3.79,3.79,0,0,1,.92-1.41A3.92,3.92,0,0,1,6.29,4a7.35,7.35,0,0,1,2.4-.44c1.44-.06,1.87-.08,5.52-.08s4.09,0,5.53.08a7.35,7.35,0,0,1,2.4.44,4.09,4.09,0,0,1,2.33,2.33,7.35,7.35,0,0,1,.44,2.4C25,10.13,25,10.56,25,14.21Z" />
         <path d="M14.21,6.68a7.54,7.54,0,1,0,7.54,7.53A7.54,7.54,0,0,0,14.21,6.68Zm4.1,7.53a4.1,4.1,0,1,1-4.1-4.09A4.11,4.11,0,0,1,18.31,14.21Z" />
         <path d="M21.54,4.75a2.14,2.14,0,1,0,2.13,2.13A2.14,2.14,0,0,0,21.54,4.75Z" />
      </g>
   </g>
    </symbol>
    <symbol id="watch-youtube">
   <g id="Layer_2" data-name="Layer 2">
      <g id="Layer_1-2" data-name="Layer 1">
         <polygon points="98.63 0 83.13 28.35 91.36 28.35 98.64 15.04 105.94 28.35 114.16 28.35 98.63 0" />
         <path d="M144.72,20.55a6.59,6.59,0,1,1,0-13.18,6.4,6.4,0,0,1,4.15,1.39h8.27C155.51,3.11,151.06,0,144.52,0c-8.36,0-14.77,5.5-14.77,13.82a14.32,14.32,0,0,0,14.5,14.53c6.45,0,12.3-3.22,13.53-10.47h-7.49a7,7,0,0,1-5.57,2.67" />
         <polygon points="177.42 28.35 177.42 17.73 168.31 17.73 168.31 28.35 160.34 28.35 160.34 10.15 168.31 0 168.31 10.61 177.42 10.61 177.42 0 185.44 0 185.44 18.15 177.42 28.35" />
         <polygon points="127.33 7.17 124.18 7.17 124.18 28.35 116.82 28.35 116.82 7.17 113.66 7.17 108.03 0 132.96 0 127.33 7.17" />
         <polygon points="55.92 13.04 62.66 4.47 65.9 4.47 72.64 13.04 72.64 0 80.65 0 80.65 28.35 74.16 28.35 64.28 15.73 54.4 28.35 47.91 28.35 47.91 0 55.92 0 55.92 13.04" />
         <path fill="red" d="M39.57,4.44A5.09,5.09,0,0,0,36,.86C32.84,0,20.2,0,20.2,0S7.55,0,4.41.88A5.11,5.11,0,0,0,.83,4.47C0,7.61,0,14.17,0,14.17s0,6.57.86,9.74a5.06,5.06,0,0,0,3.58,3.58c3.14.86,15.78.86,15.78.86s12.65,0,15.79-.86a5.08,5.08,0,0,0,3.58-3.58c.86-3.14.86-9.74.86-9.74S40.42,7.61,39.57,4.44Z" />
         <polygon fill="white" points="16.17 20.25 26.66 14.18 16.17 8.1 16.17 20.25" />
      </g>
   </g>
    </symbol>
    <symbol id="spotlight">
        <polygon class="st0" points="138.28,28.33 145.64,18.96 145.64,0 138.28,0 " />
        <path class="st0" d="M58.53,14.28C58.53,5.57,64.1,0,72.49,0c8.47,0,14.16,5.65,14.16,14.04c0,8.71-5.61,14.28-14.04,14.28    C64.14,28.33,58.53,22.68,58.53,14.28z M72.49,7.28c-3.82,0-6.25,2.39-6.25,6.52c0,4.42,2.39,7.28,6.33,7.28    c3.9,0,6.37-2.43,6.37-6.52C78.94,10.1,76.47,7.28,72.49,7.28z" />
        <path class="st0" d="M44.64,0L27.39,0l6.08,7.73h11.2c3.33,0,3.03,4.79-0.04,4.79H32.8l-5.41,6.88v8.92h8.02v-8.92l10.37,0    c6.44,0,10.36-5.63,10.36-9.81C56.14,4.14,52.87,0,44.64,0z" />
        <path class="st0" d="M28.92,7.8H17.55c-1.01,0-1.5,1.24-0.76,1.93l5.39,5.01c5.22,4.85,1.79,13.59-5.34,13.59H6.17L0,20.47    l13.8-0.02c1.07,0,1.58-1.3,0.8-2.03L9.48,13.6C4.29,8.72,7.74,0,14.87,0l7.92,0L28.92,7.8z" />
        <path class="st0" d="M176.81,12.08h-9.55l-4.5,5.74h5.99c-0.96,2.17-3.13,3.21-5.38,3.21c-3.49,0-7.26-2.49-7.26-7.14    c0-4.05,2.61-6.42,6.7-6.42c1.52,0,3.2,0.4,4.45,1.32h8.47C174.08,3.09,169.55,0,162.97,0c-8.35,0-14.85,4.81-14.85,13.88    c0,8.31,6.06,14.45,14.61,14.45c8.35,0,14.28-5.38,14.28-13.6C177.01,13.88,176.93,13,176.81,12.08z" />
        <path class="st0" d="M196.76,28.33V17.72h-9.1v10.61h-7.97V10.14L187.66,0v10.61h9.1V0h8.01v18.13L196.76,28.33z" />
        <path class="st0" d="M130.49,28.35h-19.23V0.02h7.2v21.25h17.6L130.49,28.35z" />
        <path class="st0" d="M102.97,7.16h-3.16v21.17h-7.35V7.16h-3.16L83.68,0h24.92L102.97,7.16z" />
        <path class="st0" d="M226.29,7.18h-3.16v21.17h-7.35V7.18h-3.16L207,0.02h24.92L226.29,7.18z" />
    </symbol>
    <symbol id="event">
        <path class="st0" d="M25.11,28.35L0,28.35V0h25.11l-6.23,7.93H8.01v3.11h8.42v6.27l-8.42,0v3.15l11,0.12L25.11,28.35z" />
        <path class="st0" d="M85.22,28.35l-25.11,0V0h25.11l-6.23,7.93H68.12v3.11h8.42v6.27l-8.42,0v3.15l11,0.12L85.22,28.35z" />
        <path class="st0" d="M116.19,28.35h-7.32L95.89,12.53v5.65L87.9,28.35L87.9,0h7.39l12.91,15.63v-5.47L116.19,0V28.35z" />
        <path class="st0" d="M137.57,7.16h-3.16v21.18h-7.36V7.16h-3.16L118.26,0h24.93L137.57,7.16z" />
        <polygon class="st0" points="42.64,28.35 58.14,0 49.91,0 42.63,13.31 35.34,0 27.11,0 " />
    </symbol>
    <symbol id="pro-tips">
        <path class="st0" d="M58.07,14.26C58.07,5.56,63.63,0,72.02,0c8.46,0,14.14,5.64,14.14,14.02c0,8.7-5.6,14.26-14.02,14.26  C63.67,28.29,58.07,22.65,58.07,14.26z M72.02,7.27c-3.81,0-6.24,2.38-6.24,6.52c0,4.41,2.38,7.27,6.32,7.27  c3.89,0,6.36-2.42,6.36-6.52C78.45,10.09,75.99,7.27,72.02,7.27z" />
        <path class="st0" d="M56.01,28.32l-9.28-8.99c5.7-0.76,9.13-5.82,9.13-9.72C55.85,4.14,52.58,0,44.34,0H27.08l6.08,7.74h11.21  c3.33,0,3.03,4.8-0.04,4.8H32.49l-5.41,6.89v8.92h8.03v-8.92h1.1l9.18,8.89H56.01z" />
        <path class="st0" d="M17.17,0.1L0,0.1l6.05,7.7h11.15c3.31,0,3.01,4.77-0.04,4.77H5.38L0,19.41v8.87h7.98v-8.87l10.32,0  c6.41,0,10.31-5.6,10.31-9.76C28.61,4.22,25.36,0.1,17.17,0.1z" />
        <polygon class="st0" points="127.54,28.35 134.91,18.97 134.91,0 127.54,0 " />
        <path class="st0" d="M154.75,0l-17.26,0l6.08,7.74h11.21c3.33,0,3.03,4.8-0.04,4.8H142.9l-5.41,6.89v8.92h8.03v-8.92l10.38,0  c6.45,0,10.37-5.63,10.37-9.82C166.26,4.14,162.98,0,154.75,0z" />
        <path class="st0" d="M190.44,7.8h-11.37c-1.02,0-1.5,1.24-0.76,1.94l5.39,5.01c5.22,4.85,1.79,13.6-5.34,13.6h-10.68l-6.18-7.86  l13.81-0.02c1.07,0,1.58-1.31,0.8-2.04l-5.13-4.82C165.79,8.73,169.25,0,176.38,0l7.93,0L190.44,7.8z" />
        <path class="st0" d="M119.51,7.16h-3.16v21.18H109V7.16h-3.16L100.21,0h24.93L119.51,7.16z" />
    </symbol>
    <symbol id="podium-text-ride">
        <g id="Layer_2" data-name="Layer 2"><g id="Layer_1-2" data-name="Layer 1"><polygon class="cls-1" points="39.17 13.35 42.64 8.94 42.64 0.01 39.17 0.01 39.17 13.35"/><polygon class="cls-1" points="106.29 9.94 106.29 8.16 110.25 8.16 110.25 5.2 106.29 5.2 106.29 3.44 111.65 3.44 114.35 0 102.52 0.01 102.52 13.35 114.35 13.36 111.66 9.94 106.29 9.94"/><path class="cls-1" d="M8.09.07H0L2.85,3.7H8.1A1.13,1.13,0,0,1,8.08,6H2.54L0,9.18v4.18H3.76V9.18H8.62a4.94,4.94,0,0,0,4.86-4.61C13.48,2,12,.07,8.09.07"/><polygon class="cls-1" points="8.58 13.35 13.56 13.35 6.15 6.17 3.74 8.66 8.58 13.35"/><path class="cls-1" d="M75,0H68.29V6.62h3.76V3.53h2c2.24,0,3.54,1.05,3.54,2.85a3.25,3.25,0,0,1-3.56,3.41l-3,0-2.81,3.59h6.63c4.09,0,6.71-3,6.71-7.07C81.63,2.53,79,0,75,0"/></g></g>
    </symbol>
    <symbol id="podium-text-park">
    <g id="Layer_2" data-name="Layer 2"><g id="Layer_1-2" data-name="Layer 1"><path class="cls-1" d="M7.93,0H0L2.79,3.56H7.94a1.11,1.11,0,1,1,0,2.21H2.49L0,8.93V13H3.69V8.93H8.46a4.79,4.79,0,0,0,4.76-4.51C13.22,1.91,11.72,0,7.93,0"/><path class="cls-1" d="M80.52,13l-4.3-4.17a4.84,4.84,0,0,0,4.23-4.48c0-2.52-1.54-4.4-5.34-4.38H67.2L70,3.52l5.18,0a1.1,1.1,0,1,1,0,2.2l-5.47.06-2.5,3.18V13h3.7V8.92h.51L75.61,13Z"/><polygon class="cls-1" points="112.51 0 108 0 104.41 3.92 104.41 0 101.09 0 101.09 13.04 104.41 13.04 104.41 8.81 105.25 7.9 108.47 13.04 112.39 13.04 107.59 5.37 112.51 0"/><polygon class="cls-1" points="40.29 0 33.17 13.03 36.95 13.03 40.3 6.91 43.65 13.03 47.43 13.03 40.29 0"/></g></g>
    </symbol>
    <symbol id="podium-text-surf">
    <g id="Layer_2" data-name="Layer 2"><g id="Layer_1-2" data-name="Layer 1"><path class="cls-1" d="M42.73,7.42a2.24,2.24,0,0,1-.19.93,2.43,2.43,0,0,1-.52.77,2.24,2.24,0,0,1-.76.5,2.36,2.36,0,0,1-1.86,0,2.24,2.24,0,0,1-.76-.5,2.48,2.48,0,0,1-.51-.76A2.42,2.42,0,0,1,38,7.42V.09L34.63,4.31V7.42a5.74,5.74,0,0,0,1.66,4,6,6,0,0,0,1.82,1.22,5.75,5.75,0,0,0,4.46,0,5.71,5.71,0,0,0,3-3,5.62,5.62,0,0,0,.45-2.23V.09H42.73Z"/><polygon class="cls-1" points="110.13 3.4 112.73 0.09 101.07 0.09 101.07 13.13 104.39 13.13 104.39 9.48 106.85 9.48 109.46 6.16 104.39 6.16 104.39 3.4 110.13 3.4"/><path class="cls-1" d="M13.29,3.62H8.07a.51.51,0,0,0-.35.89l2.48,2.3a3.61,3.61,0,0,1-2.46,6.25H2.84L0,9.45H6.34a.54.54,0,0,0,.37-.94L4.36,6.29A3.61,3.61,0,0,1,6.83,0h3.65Z"/><path class="cls-1" d="M80.28,13.08,76,8.93A4.86,4.86,0,0,0,80.2,4.44C80.2,1.91,78.69,0,74.88,0h-8l2.81,3.58H74.9a1.11,1.11,0,1,1,0,2.21H69.41L66.91,9V13.1h3.71V9h.5l4.25,4.1Z"/></g></g>
    </symbol>
    <symbol id="podium-text-snow">
    <g id="Layer_2" data-name="Layer 2"><g id="Layer_1-2" data-name="Layer 1"><path class="cls-1" d="M13.29,3.85H8.07a.51.51,0,0,0-.35.88L10.2,7a3.6,3.6,0,0,1-2.46,6.24H2.84L0,9.67H6.34a.54.54,0,0,0,.37-.93L4.36,6.51A3.61,3.61,0,0,1,6.83.26h3.65Z"/><polygon class="cls-1" points="46.85 13.26 43.44 13.26 37.49 6.02 37.49 8.62 33.81 13.31 33.81 0.24 37.22 0.24 43.17 7.45 43.17 4.92 46.85 0.24 46.85 13.26"/><polygon class="cls-1" points="103.01 6.24 106.09 2.31 107.58 2.31 110.67 6.24 110.67 0.26 114.35 0.26 114.35 13.26 111.37 13.26 106.84 7.48 102.31 13.26 99.33 13.26 99.33 0.26 103.01 0.26 103.01 6.24"/><path class="cls-1" d="M67.17,6.84C67.17,2.67,69.83,0,73.85,0a6.39,6.39,0,0,1,6.78,6.72c0,4.18-2.68,6.84-6.72,6.84a6.36,6.36,0,0,1-6.74-6.72m6.68-3.35a2.82,2.82,0,0,0-3,3.12c0,2.11,1.14,3.49,3,3.49a2.86,2.86,0,0,0,3-3.13c0-2.13-1.18-3.48-3.09-3.48"/></g></g>
    </symbol>
</svg>