<?xml version="1.0" encoding="utf-8"?>
<!-- Generator: Adobe Illustrator 24.1.1, SVG Export Plug-In . SVG Version: 6.00 Build 0)  -->
<svg version="1.1" id="Layer_1" xmlns="http://www.w3.org/2000/svg" xmlns:xlink="http://www.w3.org/1999/xlink" x="0px" y="0px"
	 viewBox="0 0 14.17 14.17" style="enable-background:new 0 0 14.17 14.17;" xml:space="preserve">
<path class="st0" d="M7.09,14.17C3.18,14.17,0,10.99,0,7.09C0,3.18,3.18,0,7.09,0s7.09,3.18,7.09,7.09
	C14.17,10.99,10.99,14.17,7.09,14.17z M7.09,0.32c-3.73,0-6.77,3.04-6.77,6.77c0,3.73,3.04,6.77,6.77,6.77
	c3.73,0,6.77-3.04,6.77-6.77C13.85,3.36,10.82,0.32,7.09,0.32z"/>
<polygon class="st0" points="11.7,8.14 10.34,6.03 8.14,6.03 8.14,2.24 6.03,3.67 6.03,6.03 2.47,6.03 3.83,8.14 6.03,8.14 
	6.03,11.94 8.14,10.51 8.14,8.14 "/>
</svg>
