<?xml version="1.0" encoding="utf-8"?>
<!-- Generator: Adobe Illustrator 23.1.0, SVG Export Plug-In . SVG Version: 6.00 Build 0)  -->
<svg version="1.1" id="Layer_1" xmlns="http://www.w3.org/2000/svg" xmlns:xlink="http://www.w3.org/1999/xlink"
	 viewBox="0 0 26.7 14.1" style="enable-background:new 0 0 26.7 14.1;" xml:space="preserve">

<path class="st0" d="M8.6,0L0,0l3,3.8h5.6c1.7,0,1.5,2.4,0,2.4H2.7L0,9.6v4.4h4V9.6l5.2,0c3.2,0,5.1-2.8,5.1-4.9
	C14.3,2.1,12.7,0,8.6,0z"/>
<path class="st0" d="M25.1,6.4c1-0.5,1.4-1.5,1.4-2.6c0-3.2-3-3.9-5.9-3.9h-6.4l3,3.8c4.1,0,4.5,0,4.5,0c0.6,0,0.8,0.4,0.8,0.9
	c0,0.5-0.3,0.9-0.9,0.9h-3.4h-1v2.7h1h2.8c1.1,0,1.6,0.5,1.6,1c0,0.5-0.6,1.1-1.6,1.1c-0.4,0-2.8,0-3.9,0l-3,3.8h6.3
	c3.1,0,6.2-1.2,6.2-4.7C26.7,8.2,26.2,7.1,25.1,6.4z"/>
</svg>
