<?xml version="1.0" encoding="utf-8"?>
<!-- Generator: Adobe Illustrator 23.1.0, SVG Export Plug-In . SVG Version: 6.00 Build 0)  -->
<svg version="1.1" id="Layer_1" xmlns="http://www.w3.org/2000/svg" xmlns:xlink="http://www.w3.org/1999/xlink" x="0px" y="0px"
	 viewBox="0 0 163 273" style="enable-background:new 0 0 163 273;" xml:space="preserve">

<g>
	<path class="st0" d="M20.6,257.4l-2.6-3.3h-13L1,259.3h10.1L0,269.7l2.6,3.3h14.6l4.1-5.2l-12,0C13.8,263.3,17.7,260,20.6,257.4z"
		/>
	<path class="st0" d="M58.5,254.2c-5.6,0-9.3,3.7-9.3,9.5c0,5.6,3.7,9.3,9.4,9.3c5.6,0,9.3-3.7,9.3-9.5
		C67.9,257.9,64.2,254.2,58.5,254.2z M58.6,268.2c-2.6,0-4.2-1.9-4.2-4.8c0-2.7,1.6-4.3,4.1-4.3c2.6,0,4.3,1.9,4.3,4.8
		C62.8,266.6,61.2,268.2,58.6,268.2z"/>
	<polygon class="st0" points="110.9,264.6 102.3,254.2 97.4,254.2 97.4,273 102.7,266.3 102.7,262.5 111.3,273 116.2,273 
		116.2,254.2 110.9,260.9 	"/>
	<polygon class="st0" points="158.9,259.4 163,254.2 146.4,254.2 146.4,273 163,273 159,267.8 151.7,267.7 151.7,265.6 157.3,265.6 
		157.3,261.5 151.7,261.5 151.7,259.4 	"/>
	<path class="st0" d="M0,0v243.2h163V0H0z M125.6,73.6c0,5.9-2.7,11.5-7.3,15.1l-37.7,29.8v99.4l-11.9-15.3
		c-5.1-6.6-7.8-14.7-7.8-23.1v-70.4l45.1-35.6V53.9l-59.9,47.3l0,31.7l-6.5-8.4l0-33.6c0-5.9,2.6-11.4,7.2-15l78.7-62.3V73.6z"/>
</g>
</svg>
