<?xml version="1.0" encoding="utf-8"?>
<!-- Generator: Adobe Illustrator 24.1.1, SVG Export Plug-In . SVG Version: 6.00 Build 0)  -->
<svg version="1.1" id="Layer_1" xmlns="http://www.w3.org/2000/svg" xmlns:xlink="http://www.w3.org/1999/xlink" x="0px" y="0px"
	 viewBox="0 0 282.32 28.35" style="enable-background:new 0 0 282.32 28.35;" xml:space="preserve">
<g>
	<path class="st0" d="M57.41,28.35l-25.11,0V0h25.11l-6.23,7.93H40.31v3.11h8.42v6.27l-8.42,0v3.15l11,0.12L57.41,28.35z"/>
	<path class="st0" d="M28.29,28.35h-7.31L7.99,12.53v5.65L0,28.35L0,0h7.39L20.3,15.63v-5.47L28.29,0L28.29,28.35z"/>
	<path class="st0" d="M68.32,13.04l6.73-8.57h3.24l6.74,8.57V0h8.01v28.35h-6.49l-9.88-12.61L66.8,28.35h-6.49V0h8.01V13.04z"/>
	<path class="st0" d="M282.32,28.35l-25.11,0V0h25.11l-6.23,7.93h-10.87v3.11h8.42v6.27l-8.42,0v3.15l11,0.12L282.32,28.35z"/>
	<path class="st0" d="M223.2,28.35h-7.31L202.9,12.53v5.65l-7.99,10.16l0-28.35h7.39l12.91,15.63v-5.47L223.21,0L223.2,28.35z"/>
	<path class="st0" d="M136.42,14.29c0-8.72,5.57-14.29,13.97-14.29c8.48,0,14.17,5.65,14.17,14.05c0,8.72-5.61,14.29-14.05,14.29
		C142.03,28.35,136.42,22.69,136.42,14.29z M150.39,7.29c-3.82,0-6.25,2.39-6.25,6.53c0,4.42,2.39,7.29,6.33,7.29
		c3.9,0,6.37-2.43,6.37-6.53C156.84,10.11,154.37,7.29,150.39,7.29z"/>
	<path class="st0" d="M254.63,12.09h-9.56l-4.51,5.74h5.99c-0.96,2.17-3.13,3.21-5.38,3.21c-3.49,0-7.27-2.49-7.27-7.15
		c0-4.05,2.61-6.42,6.7-6.42c1.52,0,3.2,0.4,4.46,1.32h8.47C251.9,3.09,247.37,0,240.78,0c-8.35,0-14.86,4.82-14.86,13.89
		c0,8.31,6.06,14.46,14.62,14.46c8.35,0,14.29-5.38,14.29-13.61C254.83,13.89,254.75,13.01,254.63,12.09z"/>
	<path class="st0" d="M129.33,28.35h-19.24V0h7.2v21.26h17.61L129.33,28.35z"/>
	<path class="st0" d="M185.18,15.93c0,0.74-0.13,1.4-0.41,2.02c-0.29,0.65-0.65,1.2-1.13,1.67c-0.47,0.47-1.01,0.83-1.65,1.1
		c-1.29,0.55-2.81,0.53-4.05,0c-0.64-0.27-1.18-0.63-1.65-1.1c-0.47-0.47-0.83-1.01-1.1-1.65c-0.27-0.63-0.4-1.3-0.4-2.04V0
		l-7.21,9.18v6.75c0,1.7,0.33,3.33,0.98,4.85c0.64,1.5,1.53,2.83,2.65,3.94c1.12,1.12,2.44,2.01,3.94,2.64
		c1.51,0.65,3.15,0.98,4.85,0.98c1.7,0,3.33-0.33,4.85-0.98c1.5-0.64,2.83-1.53,3.94-2.65c1.11-1.11,2-2.44,2.65-3.94l0,0
		c0.65-1.52,0.98-3.15,0.98-4.85V0h-7.21V15.93z"/>
</g>
</svg>
