<?xml version="1.0" encoding="utf-8"?>
<!-- Generator: Adobe Illustrator 23.1.0, SVG Export Plug-In . SVG Version: 6.00 Build 0)  -->
<svg version="1.1" id="Layer_1" xmlns="http://www.w3.org/2000/svg" xmlns:xlink="http://www.w3.org/1999/xlink" x="0px" y="0px"
	 viewBox="0 0 59.56 42.74" style="enable-background:new 0 0 59.56 42.74;" xml:space="preserve">

<path class="st0" d="M32.13,19.41c0-6.1-3.65-10.72-12.85-10.72l-1.71,0l-4.71,0C5.27,8.69,0,13.91,0,20.01
	c0,4.63,4.3,10.25,11.39,10.36v0.01h2.36l2.33,0l2.97,0h0.45v0l1.05,0c0.09,0,0.18-0.01,0.27-0.01h1.19c0,0,0.03,1.07,0,2.39
	c-0.03,1.36-1.02,2.32-2.75,2.32h-5.54h-1.1v0l-5.13,0l-6.04,7.69l11.18,0v0h0.45l1.12,0l1.37,0v0l4.99,0
	c7.14,0,11.5-6.18,11.57-10.84h0.01V19.53h-0.01C32.12,19.49,32.13,19.45,32.13,19.41z M12.82,17.33h1.15h3.59h1.74
	c1.88,0,2.72,1.38,2.65,2.73v2.62H19.5h-0.25h-0.85h-3.8h-1.73C9.44,22.69,9.1,17.33,12.82,17.33z"/>
<path class="st0" d="M54.74,17.07v-6.39h-5.48v6.39h-4.8V6.11l4.8-6.11V6.4h5.48V0.01h4.82v10.92L54.74,17.07z"/>
<path class="st0" d="M41.92,4.3h-1.91V17.1h-4.44V4.3h-1.91l-3.4-4.33h15.06L41.92,4.3z"/>
</svg>
