<?xml version="1.0" encoding="utf-8"?>
<!-- Generator: Adobe Illustrator 24.0.2, SVG Export Plug-In . SVG Version: 6.00 Build 0)  -->
<svg version="1.1" id="Layer_1" xmlns="http://www.w3.org/2000/svg" xmlns:xlink="http://www.w3.org/1999/xlink" x="0px" y="0px"
	 viewBox="0 0 116.38 28.35" style="enable-background:new 0 0 116.38 28.35;" xml:space="preserve">

<polygon class="st0" points="46.43,0 30.93,28.35 39.16,28.35 46.44,15.03 53.73,28.35 61.96,28.35 "/>
<path class="st0" d="M116.38,28.35l-25.11,0V0h25.11l-6.23,7.93H99.28v3.11h8.42v6.27l-8.42,0v3.15l11,0.12L116.38,28.35z"/>
<path class="st0" d="M28.93,28.32l-9.28-8.99c5.7-0.76,9.13-5.82,9.13-9.72C28.77,4.14,25.5,0,17.26,0H0l6.08,7.74h11.21
	c3.33,0,3.03,4.8-0.04,4.8H5.41L0,19.42v8.92h8.03v-8.92h1.1l9.18,8.89H28.93z"/>
<path class="st0" d="M74.99,20.54c-4.5,0-6.85-3.38-6.85-6.73c0-3.9,3.26-6.45,6.85-6.45c1.52,0,3.03,0.44,4.15,1.39h8.27
	C85.78,3.1,81.33,0,74.8,0c-8.36,0-14.77,5.49-14.77,13.81c0,8.76,6.93,14.53,14.49,14.53c6.45,0,12.3-3.22,13.54-10.47h-7.49
	C79.29,19.52,77.24,20.54,74.99,20.54z"/>
</svg>
