<?xml version="1.0" encoding="utf-8"?>
<!-- Generator: Adobe Illustrator 24.1.1, SVG Export Plug-In . SVG Version: 6.00 Build 0)  -->
<svg version="1.1" id="Layer_1" xmlns="http://www.w3.org/2000/svg" xmlns:xlink="http://www.w3.org/1999/xlink" x="0px" y="0px"
	 viewBox="0 0 28.35 243.4" style="enable-background:new 0 0 28.35 243.4;" xml:space="preserve">

<path class="st0" d="M15.93,150.67c0.74,0,1.4,0.13,2.02,0.41c0.65,0.29,1.2,0.65,1.67,1.13c0.47,0.47,0.83,1.01,1.1,1.65
	c0.55,1.29,0.53,2.81,0,4.05c-0.27,0.64-0.63,1.18-1.1,1.65c-0.47,0.47-1.01,0.83-1.65,1.1c-0.63,0.27-1.3,0.4-2.04,0.4H0l9.18,7.21
	h6.75c1.7,0,3.33-0.33,4.85-0.98c1.5-0.64,2.83-1.53,3.94-2.65c1.12-1.12,2.01-2.44,2.64-3.94c0.65-1.51,0.98-3.15,0.98-4.85
	c0-1.7-0.33-3.33-0.98-4.85c-0.64-1.5-1.53-2.83-2.65-3.94c-1.11-1.11-2.44-2-3.94-2.65l0,0c-1.52-0.65-3.15-0.98-4.85-0.98H0v7.21
	H15.93z"/>
<polygon class="st0" points="7.21,5.67 0,0 0,25.36 28.35,25.36 28.35,18.15 20.42,18.15 20.42,12.79 13.21,7.12 13.21,18.15 
	7.21,18.15 "/>
<path class="st0" d="M7.8,214.47v11.37c0,1.02,1.24,1.5,1.94,0.76l5.01-5.39c4.85-5.22,13.6-1.79,13.6,5.34v10.68l-7.86,6.18
	l-0.02-13.81c0-1.07-1.31-1.58-2.04-0.8l-4.82,5.13C8.73,239.11,0,235.66,0,228.52l0-7.93L7.8,214.47z"/>
<path class="st0" d="M28.35,72.1l-9.02,9.32c-0.76-5.7-5.82-9.13-9.72-9.13C4.14,72.3,0,75.58,0,83.82v17.26l7.74-6.08V83.78
	c0-3.33,4.8-3.03,4.8,0.04v11.84l6.89,5.41h8.92v-8.03h-8.92v-1.1l8.92-9.21V72.1z"/>
</svg>
