<?xml version="1.0" encoding="utf-8"?>
<!-- Generator: Adobe Illustrator 23.1.0, SVG Export Plug-In . SVG Version: 6.00 Build 0)  -->
<svg version="1.1" id="Layer_1" xmlns="http://www.w3.org/2000/svg" xmlns:xlink="http://www.w3.org/1999/xlink" x="0px" y="0px"
	 viewBox="0 0 59.84 42.74" style="enable-background:new 0 0 59.84 42.74;" xml:space="preserve">

<path class="st0" d="M20.75,8.5h-9.03C5.25,8.5,0,13.75,0,20.22v12.26c0,5.71,4.63,10.35,10.35,10.35h11.77
	c5.71,0,10.35-4.63,10.35-10.35V20.22C32.47,13.75,27.22,8.5,20.75,8.5z M12.65,16.26h7.23c1.32,0,2.38,1.07,2.38,2.38v4.59h-12
	v-4.59C10.27,17.33,11.33,16.26,12.65,16.26z M19.88,34.18h-7.23c-1.32,0-2.38-1.07-2.38-2.38v-3.71h12v3.71
	C22.26,33.11,21.2,34.18,19.88,34.18z"/>
<path class="st0" d="M55.01,17.01v-6.39h-5.48v6.39h-4.8V6.05l4.8-6.11v6.39h5.48v-6.39h4.82v10.92L55.01,17.01z"/>
<path class="st0" d="M42.19,4.24h-1.91v12.79h-4.44V4.24h-1.91l-3.4-4.33h15.06L42.19,4.24z"/>
</svg>
