<?xml version="1.0" encoding="utf-8"?>
<!-- Generator: Adobe Illustrator 23.1.0, SVG Export Plug-In . SVG Version: 6.00 Build 0)  -->
<svg version="1.1" id="Layer_1" xmlns="http://www.w3.org/2000/svg" xmlns:xlink="http://www.w3.org/1999/xlink" x="0px" y="0px"
	 viewBox="0 0 56.2 14.2" style="enable-background:new 0 0 56.2 14.2;" xml:space="preserve">

<g>
	<path class="st0" d="M14.6,7.1c0-4.4,2.8-7.1,7-7.1c4.2,0,7.1,2.8,7.1,7c0,4.4-2.8,7.1-7,7.1C17.4,14.2,14.6,11.3,14.6,7.1z
		 M21.6,3.6c-1.9,0-3.1,1.2-3.1,3.3c0,2.2,1.2,3.6,3.2,3.6c2,0,3.2-1.2,3.2-3.3C24.8,5.1,23.6,3.6,21.6,3.6z"/>
	<path class="st0" d="M42.1,7.1c0-4.4,2.8-7.1,7-7.1c4.2,0,7.1,2.8,7.1,7c0,4.4-2.8,7.1-7,7.1C44.9,14.2,42.1,11.3,42.1,7.1z
		 M49.1,3.6c-1.9,0-3.1,1.2-3.1,3.3c0,2.2,1.2,3.6,3.2,3.6c2,0,3.2-1.2,3.2-3.3C52.3,5.1,51.1,3.6,49.1,3.6z"/>
	<path class="st0" d="M13.9,4H8.4C7.9,4,7.7,4.6,8.1,5l2.6,2.4c2.5,2.3,0.9,6.5-2.6,6.5H3l-3-3.8l6.6,0c0.5,0,0.8-0.6,0.4-1L4.6,6.8
		C2.1,4.5,3.7,0.3,7.1,0.3h3.8L13.9,4z"/>
	<path class="st0" d="M39,13.9h-9.2V0.3h3.5v10.2h8.4L39,13.9z"/>
</g>
</svg>
