<?xml version="1.0" encoding="utf-8"?>
<!-- Generator: Adobe Illustrator 23.1.0, SVG Export Plug-In . SVG Version: 6.00 Build 0)  -->
<svg version="1.1" id="Layer_1" xmlns="http://www.w3.org/2000/svg" xmlns:xlink="http://www.w3.org/1999/xlink" x="0px" y="0px"
	 viewBox="0 0 30.2 14.2" style="enable-background:new 0 0 30.2 14.2;" xml:space="preserve">

<g>
	<path class="st0" d="M23.1,0c-4.2,0-7,2.8-7,7.1c0,4.2,2.8,7,7,7c4.2,0,7-2.8,7-7.1C30.2,2.8,27.4,0,23.1,0z M23.2,10.6
		c-2,0-3.2-1.4-3.2-3.6c0-2.1,1.2-3.3,3.1-3.3c2,0,3.2,1.4,3.2,3.6C26.3,9.3,25.1,10.6,23.2,10.6z"/>
	<path class="st0" d="M9.6,6L7.3,8.9h3c-0.5,1.1-1.6,1.6-2.7,1.6C5.9,10.5,4,9.3,4,6.9c0-2,1.3-3.2,3.4-3.2c0.8,0,1.6,0.2,2.2,0.7
		h4.2C13,1.5,10.7,0,7.4,0C3.3,0,0,2.4,0,6.9c0,4.2,3,7.2,7.3,7.2c4.2,0,7.1-2.7,7.1-6.8c0-0.4,0-0.9-0.1-1.3H9.6z"/>
</g>
</svg>
