<?xml version="1.0" encoding="utf-8"?>
<!-- Generator: Adobe Illustrator 23.1.0, SVG Export Plug-In . SVG Version: 6.00 Build 0)  -->
<svg version="1.1" id="Layer_1" xmlns="http://www.w3.org/2000/svg" xmlns:xlink="http://www.w3.org/1999/xlink" x="0px" y="0px"
	 viewBox="0 0 60.9 14.1" style="enable-background:new 0 0 60.9 14.1;" xml:space="preserve">
<g>
	<path class="st0" d="M60.9,14.1H48.5v-14h12.4L57.8,4h-5.4v1.5h4.2v3.1h-4.2v1.6l5.4,0.1L60.9,14.1z"/>
	<polygon class="st0" points="29.7,14.2 33.4,9.5 33.4,0 29.7,0 	"/>
	<path class="st0" d="M28.1,14.1l-4.6-4.5C26.3,9.3,28,6.8,28,4.8C28,2.1,26.4,0,22.3,0h-8.6l3,3.9h5.6c1.7,0,1.5,2.4,0,2.4h-5.9
		l-2.7,3.4v4.4h4V9.7h0.5l4.6,4.4H28.1z"/>
	<path class="st0" d="M45.5,6.4c1-0.5,1.4-1.5,1.4-2.6c0-3.2-3-3.8-5.8-3.8h-6.4l3,3.7c4.1,0,4.4,0,4.4,0c0.6,0,0.8,0.4,0.8,0.8
		c0,0.5-0.3,0.9-0.8,0.9h-3.4h-1v2.7h1h2.8c1.1,0,1.6,0.5,1.6,1c0,0.5-0.6,1.1-1.6,1.1c-0.4,0-2.8,0-3.9,0l-3,3.8H41
		c3.1,0,6.2-1.2,6.2-4.7C47.2,8.3,46.6,7.1,45.5,6.4z"/>
	<path class="st0" d="M9.7,3.6H8.1v10.6H4.4V3.6H2.8L0,0h12.5L9.7,3.6z"/>
</g>
</svg>
