<?xml version="1.0" encoding="utf-8"?>
<!-- Generator: Adobe Illustrator 23.1.0, SVG Export Plug-In . SVG Version: 6.00 Build 0)  -->
<svg version="1.1" id="Layer_1" xmlns="http://www.w3.org/2000/svg" xmlns:xlink="http://www.w3.org/1999/xlink" x="0px" y="0px"
	 viewBox="0 0 61.43 42.74" style="enable-background:new 0 0 61.43 42.74;" xml:space="preserve">

<path class="st0" d="M20.74,21.06v-0.01h-2.36l-2.52,0l-2.77,0h-0.45v0l-1.05,0c-0.09,0-0.18,0.01-0.27,0.01h-1.19
	c0,0-0.03-1.07,0-2.39c0.03-1.36,1.02-2.32,2.75-2.32h5.54h1.1v0l5.13,0l6.04-7.69l-11.18,0v0h-0.45l-1.13,0l-1.35,0v0l-4.99,0
	c-7.14,0-11.5,6.18-11.57,10.84H0V31.9h0.01c0,0.04-0.01,0.08-0.01,0.12c0,6.1,3.65,10.72,12.85,10.72l1.71,0v0l1.69,0l1.9,0v0
	l1.12,0c9.2,0,12.85-4.62,12.85-10.72C32.13,27.38,27.82,21.17,20.74,21.06z M19.3,34.1h-1.15h-3.59h-1.74
	c-1.88,0-2.72-1.38-2.65-2.73v-2.62h2.45v0h1.1h5.54C22.69,28.74,23.02,34.1,19.3,34.1z"/>
<path class="st0" d="M56.61,17.2v-6.39h-5.48v6.39h-4.8V6.24l4.8-6.11v6.39h5.48V0.14h4.82v10.92L56.61,17.2z"/>
<path class="st0" d="M43.78,4.44h-1.91v12.79h-4.44V4.44h-1.91l-3.4-4.33h15.06L43.78,4.44z"/>
</svg>
