<svg xmlns="http://www.w3.org/2000/svg" viewBox="0 0 112.51 13.04"><defs><style>.cls-1{fill:#e80000;}</style></defs><g id="Layer_2" data-name="Layer 2"><g id="Layer_1-2" data-name="Layer 1"><path class="cls-1" d="M7.93,0H0L2.79,3.56H7.94a1.11,1.11,0,1,1,0,2.21H2.49L0,8.93V13H3.69V8.93H8.46a4.79,4.79,0,0,0,4.76-4.51C13.22,1.91,11.72,0,7.93,0"/><path class="cls-1" d="M80.52,13l-4.3-4.17a4.84,4.84,0,0,0,4.23-4.48c0-2.52-1.54-4.4-5.34-4.38H67.2L70,3.52l5.18,0a1.1,1.1,0,1,1,0,2.2l-5.47.06-2.5,3.18V13h3.7V8.92h.51L75.61,13Z"/><polygon class="cls-1" points="112.51 0 108 0 104.41 3.92 104.41 0 101.09 0 101.09 13.04 104.41 13.04 104.41 8.81 105.25 7.9 108.47 13.04 112.39 13.04 107.59 5.37 112.51 0"/><polygon class="cls-1" points="40.29 0 33.17 13.03 36.95 13.03 40.3 6.91 43.65 13.03 47.43 13.03 40.29 0"/></g></g></svg>