<svg xmlns="http://www.w3.org/2000/svg" viewBox="0 0 114.35 13.36"><defs><style>.cls-1{fill:#f9f51d;}</style></defs><g id="Layer_2" data-name="Layer 2"><g id="Layer_1-2" data-name="Layer 1"><polygon class="cls-1" points="39.17 13.35 42.64 8.94 42.64 0.01 39.17 0.01 39.17 13.35"/><polygon class="cls-1" points="106.29 9.94 106.29 8.16 110.25 8.16 110.25 5.2 106.29 5.2 106.29 3.44 111.65 3.44 114.35 0 102.52 0.01 102.52 13.35 114.35 13.36 111.66 9.94 106.29 9.94"/><path class="cls-1" d="M8.09.07H0L2.85,3.7H8.1A1.13,1.13,0,0,1,8.08,6H2.54L0,9.18v4.18H3.76V9.18H8.62a4.94,4.94,0,0,0,4.86-4.61C13.48,2,12,.07,8.09.07"/><polygon class="cls-1" points="8.58 13.35 13.56 13.35 6.15 6.17 3.74 8.66 8.58 13.35"/><path class="cls-1" d="M75,0H68.29V6.62h3.76V3.53h2c2.24,0,3.54,1.05,3.54,2.85a3.25,3.25,0,0,1-3.56,3.41l-3,0-2.81,3.59h6.63c4.09,0,6.71-3,6.71-7.07C81.63,2.53,79,0,75,0"/></g></g></svg>