<?xml version="1.0" encoding="utf-8"?>
<!-- Generator: Adobe Illustrator 23.1.0, SVG Export Plug-In . SVG Version: 6.00 Build 0)  -->
<svg version="1.1" id="Layer_1" xmlns="http://www.w3.org/2000/svg" xmlns:xlink="http://www.w3.org/1999/xlink" x="0px" y="0px"
	 viewBox="0 0 78.97 42.74" style="enable-background:new 0 0 78.97 42.74;" xml:space="preserve">

<path class="st0" d="M74.15,17.08v-6.39h-5.48v6.39h-4.8V6.13l4.8-6.11v6.39h5.48V0.02h4.82v10.92L74.15,17.08z"/>
<path class="st0" d="M61.33,4.32h-1.91v12.79h-4.44V4.32h-1.91l-3.4-4.33h15.06L61.33,4.32z"/>
<polygon class="st0" points="14.43,42.62 14.43,8.43 7.09,8.43 0,17.45 5.36,17.45 5.36,42.62 "/>
<path class="st0" d="M39.94,8.42h-9.03c-6.47,0-11.72,5.25-11.72,11.72V32.4c0,5.71,4.63,10.35,10.35,10.35h11.77
	c5.71,0,10.35-4.63,10.35-10.35V20.14C51.66,13.67,46.41,8.42,39.94,8.42z M41.46,31.72c0,1.32-1.07,2.38-2.38,2.38h-7.23
	c-1.32,0-2.38-1.07-2.38-2.38V18.57c0-1.32,1.07-2.38,2.38-2.38h7.23c1.32,0,2.38,1.07,2.38,2.38V31.72z"/>
</svg>
