<?xml version="1.0" encoding="utf-8"?>
<!-- Generator: Adobe Illustrator 23.1.0, SVG Export Plug-In . SVG Version: 6.00 Build 0)  -->
<svg version="1.1" id="Layer_1" xmlns="http://www.w3.org/2000/svg" xmlns:xlink="http://www.w3.org/1999/xlink" x="0px" y="0px"
	 viewBox="0 0 253.3 253.3" style="enable-background:new 0 0 253.3 253.3;" xml:space="preserve">

<g>
	<path class="st0" d="M126.7,56.3c-38.8,0-70.3,31.5-70.3,70.3c0,38.8,31.5,70.3,70.3,70.3c38.8,0,70.3-31.5,70.3-70.3
		C197,87.9,165.4,56.3,126.7,56.3z M126.7,191.8c-35.9,0-65.2-29.2-65.2-65.2c0-35.9,29.2-65.2,65.2-65.2s65.2,29.2,65.2,65.2
		C191.8,162.6,162.6,191.8,126.7,191.8z"/>
	<path class="st0" d="M126.7,27.2c-54.8,0-99.4,44.6-99.4,99.4c0,54.8,44.6,99.4,99.4,99.4s99.4-44.6,99.4-99.4
		C226.1,71.8,181.5,27.2,126.7,27.2z M126.7,218.3c-50.6,0-91.7-41.1-91.7-91.7S76.1,35,126.7,35c50.6,0,91.7,41.1,91.7,91.7
		S177.2,218.3,126.7,218.3z"/>
	<path class="st0" d="M126.7,0C56.8,0,0,56.8,0,126.6s56.8,126.7,126.7,126.7c69.8,0,126.6-56.8,126.6-126.7S196.5,0,126.7,0z
		 M126.7,243c-64.2,0-116.4-52.2-116.4-116.4S62.5,10.3,126.7,10.3S243,62.5,243,126.6S190.8,243,126.7,243z"/>
</g>
</svg>
